<svg enable-background="new 0 0 1024 1024" viewBox="0 0 1024 1024" xmlns="http://www.w3.org/2000/svg"><path d="m.24.24h1023.76v1023.76h-1023.76z" fill="#003963"/><g fill="#fff"><path d="m904.93 458.11h-91.05c2.55 47.12 3.19 52.21 3.19 71.94.64 15.92 1.28 92.95 1.28 109.5v40.75l-.63 102.5c0 23.55-4.47 100.58-5.1 112.05h89.76c-6.37-45.84-6.37-99.96-6.37-150.25 0-66.21.65-220.29 8.92-286.49"/><path d="m522.31 458.11c4.46 49.02 6.37 97.41 6.37 147.07 0 3.78-.01 7.56-.01 11.34 24.52 4.73 50.45 9.3 77.69 13.71.13-111.17 2.62-138.04 5.72-172.12z"/><path d="m606.35 690.45c-26.81-3.33-52.78-6.8-77.88-10.39-.43 71.59-1.75 143.02-5.53 214.8h89.14c-3.19-40.11-5.73-68.76-5.73-150.89z"/></g><path d="m355.56 367.6c-176.41 34.61-270.93 76.26-280.93 123.81-5.85 28.14 16.91 55 67.66 79.83 110.35 53.88 350.24 98.83 675.45 126.57l.5.04.11-17.55v-7.33c-255.5-27.75-439.38-66.35-531.81-111.62-28.61-13.94-61.75-35.33-57.06-58 12.88-61.34 268.14-136.77 794.52-169.54v-34.94c-268.06 11.79-499 35.42-668.44 68.73z" fill="#00a4e4"/></svg>