<?xml version="1.0" encoding="UTF-8"?>
<!-- generated by Finnhub -->
<svg viewBox="0 0 55.5 55.5" xmlns="http://www.w3.org/2000/svg">
<path d="M 0,0 H 55.5 V 55.5 H 0 Z" fill="rgb(243, 127, 33)"/>
<path d="M 43.632000000000005,30.973 L 22.669,43.141 C 19.485,44.984 13.971,44.485 19.287,35.329 L 21.5,32 H 37.363 S 40.84,32.143 43.643,30.988 Z M 26.503,21.026 L 18.32,34.749 S 16.386,37.903 16,40.991 V 16.52 C 15.976,13.04 18.9,7.937 24.505,17.485 C 25.267,18.842 26.503,21.027 26.503,21.027 Z M 37.199,31 H 33.496 L 29.821,24.619 L 25.473,17.002 S 23.829,13.916 21.413,12.082 C 22.959,12.662 42.483,24.042 42.483,24.042 C 45.049,25.518 48.314,30.904 37.199,31 Z" fill="rgb(254, 254, 253)"/>
</svg>
